<svg width="193" height="193" viewBox="0 0 193 193" fill="none" xmlns="http://www.w3.org/2000/svg">
<g clip-path="url(#clip0_282_139)">
<rect x="0.760742" y="0.59436" width="191.811" height="191.811" rx="95.9056" fill="#F7D8BA"/>
<path d="M185.129 204.795H6.37109C14.6134 167.795 36.7349 160.405 36.7349 160.405L79.372 140.462L95.5289 140.315H95.9713L112.145 140.462L154.782 160.405C154.782 160.405 176.887 167.795 185.129 204.795Z" fill="#FF0033"/>
<path d="M105.524 34.1811C105.524 34.1811 120.403 27.5446 125.679 40.0801C130.759 52.1404 110.587 63.6436 110.587 63.6436L105.524 34.1811Z" fill="#FC6803"/>
<path d="M77.7005 84.2082C77.8643 89.7796 73.4727 94.4333 67.9014 94.5807C62.3301 94.7446 57.6763 90.3531 57.5289 84.7817C57.365 79.2104 61.7566 74.5567 67.3279 74.4092C72.8829 74.2454 77.5366 78.6369 77.7005 84.2082Z" fill="#E0A78F"/>
<path d="M61.8716 83.0776C61.8716 83.0776 65.8863 81.1276 69.7043 88.0918" stroke="#A8523F" stroke-width="1.22602" stroke-miterlimit="10" stroke-linecap="round" stroke-linejoin="round"/>
<path d="M124.648 94.5807C130.222 94.5807 134.742 90.0615 134.742 84.4868C134.742 78.912 130.222 74.3928 124.648 74.3928C119.073 74.3928 114.554 78.912 114.554 84.4868C114.554 90.0615 119.073 94.5807 124.648 94.5807Z" fill="#E0A78F"/>
<path d="M130.334 82.9138C130.334 82.9138 126.271 81.0786 122.633 88.1574" stroke="#A8523F" stroke-width="1.22602" stroke-miterlimit="10" stroke-linecap="round" stroke-linejoin="round"/>
<path d="M109.08 107.755C109.08 107.755 103.394 111.77 98.1999 112.77C93.0054 113.753 87.9749 110.754 87.9094 110.721C87.8438 110.689 81.8464 107.231 81.8464 107.231L79.3721 140.462L80.044 141.02C88.8434 148.279 101.51 148.361 110.408 141.233L111.702 140.184L109.08 107.755Z" fill="#E0A78F"/>
<path d="M79.3721 103.724C79.3721 103.724 85.0254 122.241 98.0525 122.028C108.753 121.864 110.473 103.724 110.473 103.724H79.3721Z" fill="#1E0B02"/>
<path d="M123.385 66.9207C123.451 78.3256 121.861 88.1901 120.272 95.1871C118.715 102.037 114.258 106.838 107.933 110.721L106.786 111.426C100.1 115.539 91.4481 115.67 84.615 111.786C77.7328 107.87 72.8988 102.676 71.3749 95.3346C68.622 81.9961 68.2451 67.1993 68.2451 67.1993C68.2451 67.1993 64.3615 36.3275 94.1027 36.7372C123.844 37.1469 123.385 66.9207 123.385 66.9207Z" fill="#E0A78F"/>
<path d="M86.4182 76.2117C86.4182 79.0137 84.157 81.275 81.3549 81.275C78.5529 81.275 76.2915 79.0137 76.2915 76.2117C76.2915 73.4096 78.5529 71.1483 81.3549 71.1483C84.157 71.1483 86.4182 73.4096 86.4182 76.2117Z" fill="white"/>
<path d="M113.39 76.2117C113.39 79.0137 111.129 81.275 108.326 81.275C105.524 81.275 103.263 79.0137 103.263 76.2117C103.263 73.4096 105.524 71.1483 108.326 71.1483C111.129 71.1483 113.39 73.4096 113.39 76.2117Z" fill="white"/>
<path d="M82.9938 78.3748C84.3241 78.3748 85.4025 77.2964 85.4025 75.966C85.4025 74.6357 84.3241 73.5573 82.9938 73.5573C81.6635 73.5573 80.585 74.6357 80.585 75.966C80.585 77.2964 81.6635 78.3748 82.9938 78.3748Z" fill="#003399"/>
<path d="M106.607 78.3748C107.937 78.3748 109.016 77.2964 109.016 75.966C109.016 74.6357 107.937 73.5573 106.607 73.5573C105.277 73.5573 104.198 74.6357 104.198 75.966C104.198 77.2964 105.277 78.3748 106.607 78.3748Z" fill="#003399"/>
<path d="M92.6123 79.4893V86.1257H96.9055" stroke="#A8523F" stroke-width="1.22602" stroke-miterlimit="10" stroke-linecap="round" stroke-linejoin="round"/>
<path d="M74.0303 65.8065L89.7448 64.3972C89.7448 64.3972 88.3356 60.3171 81.9777 60.9889C75.4887 61.6443 74.0303 65.8065 74.0303 65.8065Z" fill="#893903"/>
<path d="M114.554 65.8066L98.8394 64.3974C98.8394 64.3974 100.249 60.3172 106.606 60.989C113.095 61.6445 114.554 65.8066 114.554 65.8066Z" fill="#893903"/>
<path d="M87.2378 94.8922H102.739C102.739 94.8922 102.018 99.6442 94.7591 99.6442C87.5 99.6442 87.2378 94.8922 87.2378 94.8922Z" fill="white"/>
<path d="M69.2781 81.7996C69.2781 81.7996 73.686 48.4207 71.523 42.9149C71.523 42.9149 56.5459 55.3029 69.2781 81.7996Z" fill="#FC6803"/>
<path d="M122.271 81.5375C122.271 81.5375 117.322 49.6498 118.699 40.4899C118.682 40.4899 133.135 53.2876 122.271 81.5375Z" fill="#FC6803"/>
<path d="M117.65 38.2122L103.935 36.1311L102.722 33.7551L95.4796 34.853L88.2369 33.7551L87.0242 36.1311L73.3089 38.2122L71.4736 45.5533L71.9325 54.0086C71.9325 54.0086 74.0955 44.4226 81.6496 46.3234C83.4357 46.7658 85.5658 47.5196 88.0565 48.0276C90.3834 48.5356 92.612 48.765 94.6931 48.7977C94.9389 48.7977 95.201 48.7977 95.4468 48.7977C95.6926 48.7977 95.9548 48.7977 96.2006 48.7977C98.298 48.765 100.51 48.5356 102.837 48.0276C105.328 47.5196 107.507 46.9297 109.244 46.3234C116.241 43.8819 118.83 53.5662 118.83 53.5662L119.42 45.5533L117.65 38.2122Z" fill="#FC6803"/>
<path d="M79.3725 140.463L69.8521 144.838C69.8521 144.838 69.7537 160.814 95.6277 159.979C122.173 159.127 122.01 145.084 122.01 145.084L111.703 140.184L79.3725 140.463Z" fill="#E0A78F"/>
<path d="M116.847 32.6734C116.847 32.6734 94.8404 9.01163 80.6826 18.4501C66.5248 27.8886 70.0643 36.1473 59.446 39.0969C48.8277 42.0464 42.3387 39.0969 42.3387 39.0969C42.3387 39.0969 37.0295 49.1253 48.8276 49.7152C60.6258 50.3051 66.4266 56.7941 70.9 49.7152C75.3735 42.6363 85.7296 34.3776 94.1194 36.7372C102.509 39.0969 105.065 42.3577 111.358 40.2767C117.65 38.212 116.847 32.6734 116.847 32.6734Z" fill="#FC6803"/>
</g>
<defs>
<clipPath id="clip0_282_139">
<rect x="0.760742" y="0.59436" width="191.811" height="191.811" rx="95.9056" fill="white"/>
</clipPath>
</defs>
</svg>
