<svg width="193" height="193" viewBox="0 0 193 193" fill="none" xmlns="http://www.w3.org/2000/svg">
<g clip-path="url(#clip0_169_1385)">
<rect x="0.594604" y="0.59436" width="191.811" height="191.811" rx="95.9056" fill="#F7D8BA"/>
<path d="M185.59 196.052H6.83215C15.0745 159.052 37.1959 151.662 37.1959 151.662L79.8331 131.72L95.99 131.572H96.4324L112.606 131.72L155.243 151.662C155.243 151.662 177.348 159.052 185.59 196.052Z" fill="white"/>
<path d="M78.3745 76.6453C78.5383 82.2166 74.1468 86.8703 68.5754 87.0178C63.0041 87.1817 58.3504 82.7901 58.2029 77.2188C58.0391 71.6475 62.4306 66.9937 68.0019 66.8463C73.5733 66.6988 78.2106 71.0739 78.3745 76.6453Z" fill="#BF6F5C"/>
<path d="M62.5456 75.5147C62.5456 75.5147 66.5602 73.5647 70.3782 80.5289" stroke="#1E0B02" stroke-width="1.63863" stroke-miterlimit="10"/>
<path d="M125.338 87.0177C130.913 87.0177 135.432 82.4985 135.432 76.9238C135.432 71.3491 130.913 66.8298 125.338 66.8298C119.763 66.8298 115.244 71.3491 115.244 76.9238C115.244 82.4985 119.763 87.0177 125.338 87.0177Z" fill="#BF6F5C"/>
<path d="M131.024 75.3507C131.024 75.3507 126.961 73.5154 123.323 80.5943" stroke="#1E0B02" stroke-width="1.63863" stroke-miterlimit="10"/>
<path d="M109.755 100.192C109.755 100.192 104.069 104.207 98.8741 105.207C93.6797 106.19 88.6491 103.191 88.5835 103.158C88.518 103.125 82.5206 99.668 82.5206 99.668L80.0463 132.899L80.7181 133.456C89.5175 140.716 102.184 140.798 111.082 133.67L112.376 132.621L109.755 100.192Z" fill="#BF6F5C"/>
<path d="M80.0463 96.161C80.0463 96.161 85.6995 114.678 98.7266 114.465C109.427 114.301 111.147 96.161 111.147 96.161H80.0463Z" fill="#1E0B02"/>
<path d="M124.06 59.3573C124.126 70.7621 122.536 80.6267 120.947 87.6236C119.39 94.4731 114.933 99.2743 108.608 103.158L107.461 103.862C100.775 107.975 92.1232 108.106 85.2901 104.223C78.4079 100.307 73.5739 95.1122 72.05 87.7711C69.2971 74.4327 68.9202 59.6358 68.9202 59.6358C68.9202 59.6358 65.0367 28.7641 94.7778 29.1737C124.535 29.5834 124.06 59.3573 124.06 59.3573Z" fill="#BF6F5C"/>
<path d="M88.0094 68.4026C88.0094 71.2047 85.7481 73.466 82.946 73.466C80.1439 73.466 77.8826 71.2047 77.8826 68.4026C77.8826 65.6005 80.1439 63.3392 82.946 63.3392C85.7317 63.3392 88.0094 65.6169 88.0094 68.4026Z" fill="white"/>
<path d="M111.475 68.1078C111.475 70.9099 109.214 73.1712 106.412 73.1712C103.61 73.1712 101.348 70.9099 101.348 68.1078C101.348 65.3057 103.61 63.0444 106.412 63.0444C109.214 63.0444 111.475 65.3057 111.475 68.1078Z" fill="white"/>
<path d="M83.6838 70.8115C85.0141 70.8115 86.0926 69.733 86.0926 68.4027C86.0926 67.0723 85.0141 65.9939 83.6838 65.9939C82.3535 65.9939 81.275 67.0723 81.275 68.4027C81.275 69.733 82.3535 70.8115 83.6838 70.8115Z" fill="#006699"/>
<path d="M107.28 70.8115C108.61 70.8115 109.689 69.733 109.689 68.4027C109.689 67.0723 108.61 65.9939 107.28 65.9939C105.949 65.9939 104.871 67.0723 104.871 68.4027C104.871 69.733 105.949 70.8115 107.28 70.8115Z" fill="#006699"/>
<path d="M93.3024 71.926V78.5625H97.5793" stroke="#1E0B02" stroke-width="1.63863" stroke-miterlimit="10"/>
<path d="M74.7207 58.2434L90.4352 56.8341C90.4352 56.8341 89.0259 52.7539 82.6681 53.4258C76.1627 54.0812 74.7207 58.2434 74.7207 58.2434Z" fill="black"/>
<path d="M115.227 58.2432L99.5128 56.834C99.5128 56.834 100.922 52.7538 107.28 53.4257C113.785 54.0811 115.227 58.2432 115.227 58.2432Z" fill="black"/>
<path d="M85.6012 85.4119H103.741C105.461 85.4119 106.707 87.1816 106.346 89.0332C105.642 92.5891 103.151 97.505 94.6956 97.505C86.2566 97.505 83.7331 92.6218 82.9958 89.0496C82.6189 87.1816 83.8806 85.4119 85.6012 85.4119Z" fill="#8B2033"/>
<path d="M86.388 87.4601L94.4992 88.5907C94.6139 88.6071 94.7286 88.6071 94.8433 88.5907L102.791 87.4765C103.987 87.3126 104.757 88.8201 104.036 89.8689C102.512 92.1138 99.579 94.8831 94.4665 94.8831C89.3048 94.8831 86.5355 92.0482 85.1427 89.7869C84.4544 88.7382 85.2246 87.2962 86.388 87.4601Z" fill="white"/>
<path d="M69.9516 74.236C69.9516 74.236 74.3595 40.8571 72.1966 35.3513C72.1966 35.3513 57.2195 47.7394 69.9516 74.236Z" fill="#1E0B02"/>
<path d="M122.945 73.9738C122.945 73.9738 117.996 42.0861 119.373 32.9261C119.356 32.9261 133.825 45.7238 122.945 73.9738Z" fill="#1E0B02"/>
<path d="M118.324 25.8804L104.609 23.1767L103.396 20.0961L96.1533 21.5217L88.9106 20.0961L87.698 23.1767L73.9827 25.8804L72.1474 35.4336L72.6062 46.4452C72.6062 46.4452 74.7692 33.9589 82.3233 36.4496C84.1094 37.0395 86.2396 38.0063 88.7303 38.6617C91.0572 39.3172 93.2857 39.6285 95.3668 39.6613C95.6126 39.6777 95.8748 39.6613 96.1206 39.6613C96.3663 39.6613 96.6285 39.6613 96.8743 39.6613C98.9718 39.6121 101.184 39.3172 103.511 38.6617C106.001 38.0063 108.181 37.2361 109.918 36.4496C116.915 33.2706 119.504 45.8881 119.504 45.8881L120.094 35.45L118.324 25.8804Z" fill="#1E0B02"/>
<path d="M80.0459 132.899L70.5255 137.274C70.5255 137.274 70.4272 153.251 96.3012 152.415C122.847 151.563 122.683 137.52 122.683 137.52L112.376 132.621L80.0459 132.899Z" fill="#BF6F5C"/>
<path d="M124.076 39.907C124.076 39.907 127.058 32.4676 122.699 29.174C118.341 25.8803 115.752 25.8312 115.244 21.8985C114.736 17.9658 119.127 14.4263 119.127 14.4263C119.127 14.4263 113.965 13.2465 112.392 16.7859C110.819 20.3254 109.705 24.1598 109.705 24.1598C109.705 24.1598 109.902 18.7523 106.428 16.3927C102.954 14.033 98.9392 13.2629 97.5956 14.2297C96.2519 15.2129 98.8573 14.8196 99.5291 17.5725C100.201 20.3254 90.5331 20.3254 90.4511 16.3927C90.3692 12.46 90.3692 12.46 90.3692 12.46C90.3692 12.46 84.9781 11.6734 86.1088 15.6061C87.2394 19.5388 87.7638 23.1602 87.7638 23.1602C87.7638 23.1602 89.6482 18.7523 84.8962 17.9658C80.1442 17.1792 77.8992 20.0796 77.8992 20.0796C77.8992 20.0796 80.4719 15.8847 81.2912 20.0796C82.1105 24.2745 81.2912 26.1425 81.2912 26.1425L74.7367 32.9101C74.7367 32.9101 104.806 31.8613 106.444 31.2059C108.083 30.5504 120.192 35.4172 120.192 35.4172L124.076 39.907Z" fill="#1E0B02"/>
<path d="M68.772 44.7082C64.3969 41.1687 60.4642 41.3326 60.4642 35.3516C60.4642 29.3706 66.4779 23.0783 66.4779 23.0783C66.4779 23.0783 62.1192 25.8148 64.8393 29.174C67.5594 32.5332 70.4107 29.174 70.4107 29.174C70.4107 29.174 73.524 26.2245 70.5417 23.0783C67.5594 19.9321 68.2968 15.9994 68.2968 15.9994L72.2131 12.3944C72.2131 12.3944 67.625 12.0667 70.5417 16.7859C73.4585 21.5052 73.6388 15.2293 76.2114 20.0796C78.784 24.9299 85.0108 22.3245 81.2911 26.1425C77.5715 29.9769 82.4382 29.1576 82.4382 29.1576C82.4382 29.1576 87.3049 22.177 86.0923 20.0632C84.8797 17.9494 80.4554 13.4923 81.2748 12.378C82.0941 11.2638 81.7336 14.8032 86.0923 15.5897C90.4347 16.3763 94.5476 15.983 96.1863 21.4888C97.8249 26.9946 93.3023 32.1399 93.3023 32.1399C93.3023 32.1399 74.4253 29.7639 74.7202 32.8937C75.0152 36.0562 68.772 44.7082 68.772 44.7082Z" fill="#1E0B02"/>
</g>
<defs>
<clipPath id="clip0_169_1385">
<rect x="0.594604" y="0.59436" width="191.811" height="191.811" rx="95.9056" fill="white"/>
</clipPath>
</defs>
</svg>
