<svg width="193" height="193" viewBox="0 0 193 193" fill="none" xmlns="http://www.w3.org/2000/svg">
<g clip-path="url(#clip0_282_336)">
<rect x="0.427734" y="0.59436" width="191.811" height="191.811" rx="95.9056" fill="#F7D8BA"/>
<path d="M185.13 197.594H6.37158C14.6139 160.594 36.7354 153.204 36.7354 153.204L79.3725 133.261L95.5294 133.114H95.9718L112.145 133.261L154.782 153.204C154.782 153.204 176.887 160.594 185.13 197.594Z" fill="white"/>
<mask id="mask0_282_336" style="mask-type:luminance" maskUnits="userSpaceOnUse" x="6" y="133" width="180" height="65">
<path d="M185.13 197.594H6.37158C14.6139 160.594 36.7354 153.204 36.7354 153.204L79.3725 133.261L95.5294 133.114H95.9718L112.145 133.261L154.782 153.204C154.782 153.204 176.887 160.594 185.13 197.594Z" fill="white"/>
</mask>
<g mask="url(#mask0_282_336)">
<path d="M46.5507 175.44L30.3774 176.308L21.5288 162.741L28.8535 148.304L45.0268 147.419L53.8754 160.987L46.5507 175.44Z" fill="#33FFFF"/>
<path d="M116.143 183.698L107.049 165.133L118.568 147.976L139.199 149.369L148.293 167.935L136.757 185.091L116.143 183.698Z" fill="#003399"/>
<path d="M79.3879 177.8L67.0654 176.603L61.9365 165.346L69.1301 155.268L81.4362 156.465L86.5651 167.722L79.3879 177.8Z" fill="#006600"/>
<path d="M66.0173 206.115L62.5762 185.534L78.6839 172.277L98.2164 179.602L101.641 200.167L85.5498 213.423L66.0173 206.115Z" fill="#2C3160"/>
<path d="M29.4429 192.858L12.3848 199.347L-1.77295 187.828L1.12743 169.819L18.1856 163.314L32.3433 174.834L29.4429 192.858Z" fill="#B90E72"/>
<path d="M47.7294 192.858L41.6992 187.336L43.4689 179.356L51.2688 176.898L57.2989 182.42L55.5292 190.401L47.7294 192.858Z" fill="#B96E23"/>
<path d="M114.766 191.891L106.36 192.416L101.707 185.386L105.459 177.848L113.882 177.324L118.535 184.354L114.766 191.891Z" fill="#B96E23"/>
<path d="M158.633 181.339L146.786 162.921L156.814 143.454L178.69 142.405L190.537 160.823L180.509 180.29L158.633 181.339Z" fill="#6600CC"/>
<path d="M150.374 206.115L157.895 178.422L185.62 171.097L205.825 191.433L198.32 219.109L170.594 226.45L150.374 206.115Z" fill="#2C3160"/>
<path d="M134.315 158.332L126.466 143.421L135.446 129.165L152.274 129.804L160.14 144.715L151.16 158.971L134.315 158.332Z" fill="#B90E72"/>
<path d="M99.0517 174.85L82.1574 172.261L75.9307 156.334L86.6309 142.995L103.525 145.568L109.736 161.495L99.0517 174.85Z" fill="white"/>
<path d="M58.8723 153.99L42.5024 155.35L33.1294 141.848L40.1427 126.986L56.5126 125.625L65.8692 139.128L58.8723 153.99Z" fill="white"/>
<path d="M37.7013 206.115L31.2451 190.794L41.2735 177.538L57.7581 179.602L64.2307 194.907L54.2023 208.164L37.7013 206.115Z" fill="#FFCC00"/>
<path d="M130.563 205.525L115.143 191.531L119.551 171.179L139.378 164.822L154.798 178.799L150.39 199.151L130.563 205.525Z" fill="#288E46"/>
</g>
<path d="M77.9138 78.1872C78.0776 83.7586 73.6861 88.4123 68.1148 88.5598C62.5434 88.7236 57.8897 84.3321 57.7422 78.7607C57.5784 73.1894 61.9699 68.5357 67.5412 68.3882C73.1126 68.2244 77.7499 72.6159 77.9138 78.1872Z" fill="#966050"/>
<path d="M62.085 77.0565C62.085 77.0565 66.0996 75.1065 69.9176 82.0707" stroke="#1E0B02" stroke-width="1.63863" stroke-miterlimit="10"/>
<path d="M124.877 88.5596C130.452 88.5596 134.971 84.0404 134.971 78.4657C134.971 72.8909 130.452 68.3717 124.877 68.3717C119.302 68.3717 114.783 72.8909 114.783 78.4657C114.783 84.0404 119.302 88.5596 124.877 88.5596Z" fill="#966050"/>
<path d="M130.563 76.8925C130.563 76.8925 126.5 75.0572 122.862 82.1361" stroke="#1E0B02" stroke-width="1.63863" stroke-miterlimit="10"/>
<path d="M109.294 101.734C109.294 101.734 103.608 105.749 98.4133 106.749C93.2188 107.732 88.1882 104.733 88.1227 104.7C88.0571 104.667 82.0598 101.21 82.0598 101.21L79.5854 134.441L80.2573 134.998C89.0567 142.258 101.723 142.34 110.621 135.212L111.916 134.163L109.294 101.734Z" fill="#966050"/>
<path d="M79.5854 97.7031C79.5854 97.7031 85.2387 116.22 98.2658 116.007C108.966 115.843 110.687 97.7031 110.687 97.7031H79.5854Z" fill="#1E0B02"/>
<path d="M123.599 60.8996C123.665 72.3045 122.075 82.169 120.486 89.166C118.929 96.0154 114.472 100.817 108.147 104.7L107 105.405C100.314 109.518 91.6625 109.649 84.8294 105.765C77.9472 101.849 73.1132 96.6545 71.5893 89.3135C68.8364 75.975 68.4595 61.1782 68.4595 61.1782C68.4595 61.1782 64.5759 30.3064 94.3171 30.7161C124.075 31.1257 123.599 60.8996 123.599 60.8996Z" fill="#966050"/>
<path d="M87.5486 69.9447C87.5486 72.7468 85.2873 75.0081 82.4853 75.0081C79.6832 75.0081 77.4219 72.7468 77.4219 69.9447C77.4219 67.1427 79.6832 64.8813 82.4853 64.8813C85.2709 64.8813 87.5486 67.159 87.5486 69.9447Z" fill="white"/>
<path d="M111.014 69.6498C111.014 72.4518 108.753 74.7132 105.951 74.7132C103.149 74.7132 100.888 72.4518 100.888 69.6498C100.888 66.8477 103.149 64.5864 105.951 64.5864C108.753 64.5864 111.014 66.8477 111.014 69.6498Z" fill="white"/>
<path d="M83.2232 72.3537C84.5536 72.3537 85.632 71.2753 85.632 69.9449C85.632 68.6146 84.5536 67.5361 83.2232 67.5361C81.8929 67.5361 80.8145 68.6146 80.8145 69.9449C80.8145 71.2753 81.8929 72.3537 83.2232 72.3537Z" fill="#1E0B02"/>
<path d="M106.819 72.3537C108.15 72.3537 109.228 71.2753 109.228 69.9449C109.228 68.6146 108.15 67.5361 106.819 67.5361C105.489 67.5361 104.411 68.6146 104.411 69.9449C104.411 71.2753 105.489 72.3537 106.819 72.3537Z" fill="#1E0B02"/>
<path d="M92.8418 73.4681V80.1046H97.1186" stroke="#1E0B02" stroke-width="1.63863" stroke-miterlimit="10"/>
<path d="M74.2598 59.7854L89.9742 58.3761C89.9742 58.3761 88.565 54.2959 82.2071 54.9678C75.7017 55.6232 74.2598 59.7854 74.2598 59.7854Z" fill="black"/>
<path d="M114.767 59.7854L99.0522 58.3761C99.0522 58.3761 100.461 54.2959 106.819 54.9678C113.325 55.6232 114.767 59.7854 114.767 59.7854Z" fill="black"/>
<path d="M85.1405 86.954H103.28C105.001 86.954 106.246 88.7237 105.886 90.5753C105.181 94.1312 102.69 99.0471 94.2349 99.0471C85.7959 99.0471 83.2724 94.1639 82.5351 90.5917C82.1746 88.7237 83.4199 86.954 85.1405 86.954Z" fill="#442015"/>
<path d="M85.9265 89.0022L94.0377 90.1329C94.1524 90.1492 94.2671 90.1492 94.3818 90.1329L102.329 89.0186C103.525 88.8547 104.296 90.3623 103.575 91.411C102.051 93.6559 99.1175 96.4252 94.005 96.4252C88.8433 96.4252 86.074 93.5904 84.6812 91.329C83.9929 90.2803 84.7631 88.8383 85.9265 89.0022Z" fill="white"/>
<path d="M69.4915 75.7785C69.4915 75.7785 73.8994 42.3996 71.7365 36.8938C71.7365 36.8938 56.7758 49.2818 69.4915 75.7785Z" fill="#1E0B02"/>
<path d="M122.484 75.5163C122.484 75.5163 117.536 43.6286 118.912 34.4686C118.912 34.4686 133.365 47.2663 122.484 75.5163Z" fill="#1E0B02"/>
<path d="M117.863 27.4224L104.148 24.7187L102.935 21.6381L95.6925 23.0637L88.4497 21.6381L87.2371 24.7187L73.5218 27.4224L71.6865 36.9756L72.1453 47.9872C72.1453 47.9872 74.3083 35.5009 81.8624 37.9916C83.6485 38.5815 85.7787 39.5483 88.2695 40.2037C90.5963 40.8592 92.8248 41.1705 94.9059 41.2033C95.1517 41.2197 95.4139 41.2033 95.6597 41.2033C95.9055 41.2033 96.1677 41.2033 96.4135 41.2033C98.5109 41.1541 100.723 40.8592 103.05 40.2037C105.541 39.5483 107.72 38.7781 109.457 37.9916C116.454 34.8126 119.043 47.4301 119.043 47.4301L119.633 36.992L117.863 27.4224Z" fill="#1E0B02"/>
<path d="M79.5859 134.441L70.0654 138.816C70.0654 138.816 69.9671 154.793 95.8411 153.957C122.387 153.105 122.223 139.062 122.223 139.062L111.916 134.163L79.5859 134.441Z" fill="#966050"/>
<path d="M68.885 45.382C68.885 48.7084 66.1976 51.3958 62.8712 51.3958C59.5448 51.3958 56.8574 48.7084 56.8574 45.382C56.8574 42.0556 59.5448 39.3682 62.8712 39.3682C66.1976 39.3519 68.885 42.0556 68.885 45.382Z" fill="#1E0B02"/>
<path d="M68.9998 55.8363C68.9998 58.6384 66.7385 60.8997 63.9364 60.8997C61.1343 60.8997 58.873 58.6384 58.873 55.8363C58.873 53.0343 61.1343 50.7729 63.9364 50.7729C66.7221 50.7729 68.9998 53.0343 68.9998 55.8363Z" fill="#1E0B02"/>
<path d="M132.726 54.9841C132.726 57.7862 130.465 60.0475 127.663 60.0475C124.861 60.0475 122.6 57.7862 122.6 54.9841C122.6 52.1821 124.861 49.9208 127.663 49.9208C130.465 49.9208 132.726 52.1985 132.726 54.9841Z" fill="#1E0B02"/>
<path d="M73.3586 36.8935C73.3586 40.2199 70.6712 42.9073 67.3448 42.9073C64.0184 42.9073 61.3311 40.2199 61.3311 36.8935C61.3311 33.5671 64.0184 30.8798 67.3448 30.8798C70.6712 30.8798 73.3586 33.5671 73.3586 36.8935Z" fill="#1E0B02"/>
<path d="M79.3889 28.9135C79.3889 32.24 76.7015 34.9273 73.3751 34.9273C70.0487 34.9273 67.3613 32.24 67.3613 28.9135C67.3613 25.5871 70.0487 22.8998 73.3751 22.8998C76.7015 22.8998 79.3889 25.5871 79.3889 28.9135Z" fill="#1E0B02"/>
<path d="M88.1389 24.2598C88.1389 27.5862 85.4515 30.2736 82.1251 30.2736C78.7987 30.2736 76.1113 27.5862 76.1113 24.2598C76.1113 20.9334 78.7987 18.246 82.1251 18.246C85.4351 18.2297 88.1389 20.9334 88.1389 24.2598Z" fill="#1E0B02"/>
<path d="M97.0041 22.2442C97.0041 25.5707 94.3167 28.258 90.9903 28.258C87.6639 28.258 84.9766 25.5707 84.9766 22.2442C84.9766 18.9178 87.6639 16.2305 90.9903 16.2305C94.3167 16.2305 97.0041 18.9178 97.0041 22.2442Z" fill="#1E0B02"/>
<path d="M123.354 45.3819C123.354 48.7083 126.041 51.3957 129.367 51.3957C132.694 51.3957 135.381 48.7083 135.381 45.3819C135.381 42.0555 132.694 39.3682 129.367 39.3682C126.041 39.3682 123.354 42.0555 123.354 45.3819Z" fill="#1E0B02"/>
<path d="M118.863 36.8935C118.863 40.2199 121.551 42.9073 124.877 42.9073C128.203 42.9073 130.891 40.2199 130.891 36.8935C130.891 33.5671 128.203 30.8798 124.877 30.8798C121.567 30.8798 118.863 33.5671 118.863 36.8935Z" fill="#1E0B02"/>
<path d="M112.849 28.9136C112.849 32.24 115.536 34.9274 118.863 34.9274C122.189 34.9274 124.877 32.24 124.877 28.9136C124.877 25.5872 122.189 22.8999 118.863 22.8999C115.553 22.8835 112.849 25.5872 112.849 28.9136Z" fill="#1E0B02"/>
<path d="M104.1 24.2597C104.1 27.5862 106.787 30.2735 110.113 30.2735C113.44 30.2735 116.127 27.5862 116.127 24.2597C116.127 20.9333 113.44 18.246 110.113 18.246C106.787 18.246 104.1 20.9333 104.1 24.2597Z" fill="#1E0B02"/>
<path d="M95.2339 22.2443C95.2339 25.5707 97.9212 28.2581 101.248 28.2581C104.574 28.2581 107.261 25.5707 107.261 22.2443C107.261 18.9179 104.574 16.2305 101.248 16.2305C97.9212 16.2142 95.2339 18.9179 95.2339 22.2443Z" fill="#1E0B02"/>
</g>
<defs>
<clipPath id="clip0_282_336">
<rect x="0.427734" y="0.59436" width="191.811" height="191.811" rx="95.9056" fill="white"/>
</clipPath>
</defs>
</svg>
