<svg width="193" height="193" viewBox="0 0 193 193" fill="none" xmlns="http://www.w3.org/2000/svg">
<g clip-path="url(#clip0_282_411)">
<rect x="0.760742" y="0.594482" width="191.811" height="191.811" rx="95.9056" fill="#F7D8BA"/>
<path d="M159.365 180.005C156.367 172.008 147.19 161.504 129.428 158.719L96.3111 152.213L63.1944 158.719C45.4316 161.504 36.2553 172.008 33.2566 180.005L26.3252 211.335H56.7054H58.9339H96.3274H133.721H135.949H166.33L159.365 180.005Z" fill="#D3445B"/>
<path d="M62.1782 159.063L98.097 151.788L131.607 158.965L130.87 159.506C110.37 174.22 82.8086 173.549 62.1782 159.063Z" fill="#966050"/>
<path d="M78.4008 105.938C78.6138 111.28 74.4353 115.786 69.0934 115.999C63.7515 116.212 59.2452 112.034 59.0322 106.692C58.8192 101.35 62.9977 96.8439 68.3396 96.6309C73.6979 96.4179 78.2042 100.58 78.4008 105.938Z" fill="#7C483D"/>
<path d="M63.2104 105.004C63.2104 105.004 67.0449 103.087 70.7809 109.74" stroke="black" stroke-width="1.08346" stroke-miterlimit="10" stroke-linecap="round" stroke-linejoin="round"/>
<path d="M113.795 105.84C113.844 111.199 118.236 115.492 123.594 115.426C128.952 115.377 133.245 110.986 133.18 105.627C133.131 100.269 128.739 95.9757 123.381 96.0413C118.039 96.1068 113.746 100.482 113.795 105.84Z" fill="#7C483D"/>
<path d="M128.936 104.169C128.936 104.169 125.019 102.448 121.595 109.281" stroke="black" stroke-width="1.08346" stroke-miterlimit="10" stroke-linecap="round" stroke-linejoin="round"/>
<path d="M95.8837 113.565C114.298 113.376 129.083 99.2915 128.906 82.1074C128.729 64.9234 113.657 51.1468 95.2427 51.3365C76.828 51.5262 62.0434 65.6103 62.2204 82.7944C62.3974 99.9784 77.469 113.755 95.8837 113.565Z" fill="black"/>
<path d="M105.651 125.274C105.651 125.274 101.505 129.174 97.6873 130.157C93.8693 131.14 90.1168 128.289 90.0676 128.256C90.0185 128.224 85.5614 124.946 85.5614 124.946L84.103 156.867L84.611 157.391C91.1819 164.306 100.522 164.306 106.995 157.391L107.945 156.375L105.651 125.274Z" fill="#966050"/>
<path d="M82.5142 120.752C82.5142 120.752 88.0855 139.334 97.6715 139.056C105.553 138.826 107.569 121.424 107.569 121.424L82.5142 120.752Z" fill="#1E0B02"/>
<path d="M122.086 87.6358C122.25 98.1231 120.824 107.185 119.366 113.641C117.94 119.95 113.696 124.407 107.666 128.044L106.568 128.7C100.194 132.534 91.8863 132.764 85.2826 129.257C78.6298 125.718 73.9433 120.998 72.4194 114.28C69.6501 102.056 69.1585 88.4715 69.1585 88.4715C69.1585 88.4715 66.6514 60.1396 95.1963 60.2052C123.758 60.2544 122.086 87.6358 122.086 87.6358Z" fill="#966050"/>
<path d="M87.7571 97.0907C87.7571 99.8928 85.4958 102.154 82.6937 102.154C79.8917 102.154 77.6304 99.8928 77.6304 97.0907C77.6304 94.2887 79.8917 92.0273 82.6937 92.0273C85.4794 92.0273 87.7571 94.2887 87.7571 97.0907Z" fill="white"/>
<path d="M111.221 96.7955C111.221 99.5976 108.96 101.859 106.158 101.859C103.356 101.859 101.095 99.5976 101.095 96.7955C101.095 93.9935 103.356 91.7322 106.158 91.7322C108.96 91.7322 111.221 93.9935 111.221 96.7955Z" fill="white"/>
<path d="M93.5249 102.432L93.6068 106.528L96.4089 106.479" stroke="#684138" stroke-width="1.63863" stroke-miterlimit="10" stroke-linecap="round" stroke-linejoin="round"/>
<path d="M73.8286 88.1106L88.8876 86.4393C88.8876 86.4393 87.462 82.5557 81.3663 83.3095C75.1395 84.096 73.8286 88.1106 73.8286 88.1106Z" fill="black"/>
<path d="M115.303 87.2585L100.178 86.2098C100.178 86.2098 101.456 82.2771 107.568 82.785C113.828 83.293 115.303 87.2585 115.303 87.2585Z" fill="black"/>
<path d="M85.7418 97.0413C85.7746 98.3194 84.7586 99.3681 83.4805 99.4009C82.2024 99.4337 81.1537 98.4177 81.1209 97.1396C81.0881 95.8615 82.1041 94.8128 83.3822 94.78C84.6603 94.7636 85.709 95.7632 85.7418 97.0413Z" fill="#1E0B02"/>
<path d="M108.403 96.5826C108.436 97.8607 107.42 98.9095 106.142 98.9422C104.864 98.975 103.815 97.9591 103.783 96.681C103.75 95.4028 104.766 94.3541 106.044 94.3213C107.322 94.2886 108.371 95.3045 108.403 96.5826Z" fill="#1E0B02"/>
<path d="M86.397 112.657C86.397 112.657 92.8532 116.082 103.16 112.477" stroke="#991A66" stroke-width="3.27726" stroke-miterlimit="10" stroke-linecap="round" stroke-linejoin="round"/>
<path d="M86.5767 112.739C86.5767 112.739 93.0656 116.098 103.323 112.395" stroke="black" stroke-width="1.08346" stroke-miterlimit="10" stroke-linecap="round" stroke-linejoin="round"/>
<path d="M122.021 81.1791C122.021 81.1791 80.0234 83.1947 81.5473 58.5333C81.5473 58.5333 118.04 47.7839 122.021 81.1791Z" fill="black"/>
<path d="M68.4705 81.7531C68.4705 81.7531 83.169 75.428 83.0051 60.3035C83.0051 60.3035 67.897 62.2043 68.4705 81.7531Z" fill="black"/>
<path d="M94.5417 55.1574C105.393 55.1574 114.189 46.361 114.189 35.5102C114.189 24.6594 105.393 15.863 94.5417 15.863C83.6909 15.863 74.8945 24.6594 74.8945 35.5102C74.8945 46.361 83.6909 55.1574 94.5417 55.1574Z" fill="black"/>
<path d="M93.7388 47.9802C93.7388 54.0759 88.5116 59.0245 82.0882 59.0245C75.6483 59.0245 70.4375 54.0759 70.4375 47.9802C70.4375 41.8845 75.6647 36.9358 82.0882 36.9358C88.528 36.9358 93.7388 41.8845 93.7388 47.9802Z" fill="black"/>
<path d="M109.453 61.073C115.199 61.073 119.858 56.4144 119.858 50.6678C119.858 44.9211 115.199 40.2625 109.453 40.2625C103.706 40.2625 99.0474 44.9211 99.0474 50.6678C99.0474 56.4144 103.706 61.073 109.453 61.073Z" fill="black"/>
</g>
<defs>
<clipPath id="clip0_282_411">
<rect x="0.760742" y="0.594482" width="191.811" height="191.811" rx="95.9056" fill="white"/>
</clipPath>
</defs>
</svg>
