<svg width="193" height="192" viewBox="0 0 193 192" fill="none" xmlns="http://www.w3.org/2000/svg">
<g clip-path="url(#clip0_359_1484)">
<path d="M96.5391 192C149.558 192 192.539 149.019 192.539 96C192.539 42.9807 149.558 0 96.5391 0C43.5197 0 0.539063 42.9807 0.539063 96C0.539063 149.019 43.5197 192 96.5391 192Z" fill="#F7D8BA"/>
<path d="M62.7714 47.3989C62.7714 47.3989 50.4954 91.0527 41.0209 124.502C27.2847 173.012 49.8671 191.061 105.423 192.402C165.785 193.862 152.099 115.724 126.749 35.887L62.7714 47.3989Z" fill="black"/>
<path d="M163.018 153.299C159.911 145.013 150.402 134.13 131.997 131.243L97.6816 124.502L63.3665 131.243C44.9609 134.13 35.4525 145.013 32.3453 153.299L25.1631 185.764H56.6426L58.9349 188.396L97.1383 195.917L136.411 185.781H138.721H170.2L163.018 153.299Z" fill="white"/>
<path d="M62.2969 131.599L99.4985 124.061L134.221 131.497L133.457 132.058C112.25 147.305 83.6908 146.609 62.2969 131.599Z" fill="#994533"/>
<path d="M79.1225 76.5525C79.3433 82.0877 75.0135 86.757 69.4783 86.9778C63.943 87.1985 59.2737 82.8688 59.053 77.3335C58.8323 71.7983 63.162 67.129 68.6972 66.9083C74.2495 66.6875 78.9188 71.0003 79.1225 76.5525Z" fill="#994533"/>
<path d="M63.3672 75.5847C63.3672 75.5847 67.3403 73.5981 71.2116 80.4917" stroke="#1E0B02" stroke-width="1.69793" stroke-miterlimit="10"/>
<path d="M115.797 76.4508C115.848 82.003 120.398 86.4515 125.95 86.3836C131.503 86.3327 135.951 81.7822 135.883 76.23C135.832 70.6778 131.282 66.2292 125.73 66.2972C120.194 66.3651 115.729 70.8985 115.797 76.4508Z" fill="#994533"/>
<path d="M131.486 74.719C131.486 74.719 127.428 72.9362 123.879 80.0166" stroke="#1E0B02" stroke-width="1.69793" stroke-miterlimit="10"/>
<path d="M97.2273 84.4629C116.308 84.2663 131.628 69.6724 131.445 51.8665C131.261 34.0606 115.644 19.7854 96.5631 19.982C77.482 20.1786 62.1624 34.7724 62.3458 52.5783C62.5292 70.3842 78.1462 84.6594 97.2273 84.4629Z" fill="black"/>
<path d="M107.36 96.5884C107.36 96.5884 103.064 100.629 99.1081 101.648C95.1519 102.667 91.2637 99.7125 91.2127 99.6786C91.1618 99.6446 86.5434 96.2488 86.5434 96.2488L85.0322 129.324L85.5586 129.868C92.3673 137.033 102.045 137.033 108.752 129.868L109.737 128.815L107.36 96.5884Z" fill="#994533"/>
<path d="M83.3682 91.9021C83.3682 91.9021 89.1411 111.157 99.074 110.868C107.241 110.63 109.329 92.5983 109.329 92.5983L83.3682 91.9021Z" fill="#1E0B02"/>
<path d="M124.373 57.5868C124.543 68.4535 123.065 77.8431 121.554 84.5329C120.077 91.0699 115.679 95.6883 109.431 99.4577L108.293 100.137C101.688 104.11 93.08 104.348 86.2373 100.714C79.3437 97.0466 74.4877 92.1566 72.9086 85.1951C70.0391 72.5285 69.5297 58.4527 69.5297 58.4527C69.5297 58.4527 66.9319 29.0955 96.5098 29.1634C126.105 29.2144 124.373 57.5868 124.373 57.5868Z" fill="#994533"/>
<path d="M89.293 67.418C89.293 70.3214 86.9499 72.6646 84.0464 72.6646C81.1429 72.6646 78.7998 70.3214 78.7998 67.418C78.7998 64.5145 81.1429 62.1714 84.0464 62.1714C86.9499 62.1714 89.293 64.5315 89.293 67.418Z" fill="white"/>
<path d="M113.625 67.1123C113.625 70.0158 111.282 72.3589 108.378 72.3589C105.475 72.3589 103.132 70.0158 103.132 67.1123C103.132 64.2089 105.475 61.8657 108.378 61.8657C111.265 61.8657 113.625 64.2089 113.625 67.1123Z" fill="white"/>
<path d="M94.7432 72.9194L94.7772 77.1643L97.6806 77.1303" stroke="black" stroke-width="1.69793" stroke-miterlimit="10"/>
<path d="M74.4873 57.8584L90.1083 56.2793C90.1083 56.2793 88.665 52.2382 82.3487 52.9684C75.8966 53.7154 74.4873 57.8584 74.4873 57.8584Z" fill="black"/>
<path d="M117.478 57.4172L101.823 56.1608C101.823 56.1608 103.182 52.1027 109.515 52.68C115.984 53.2913 117.478 57.4172 117.478 57.4172Z" fill="black"/>
<path d="M86.7285 67.2479C86.7455 68.5723 85.6758 69.659 84.3515 69.659C83.0271 69.659 81.9404 68.6062 81.9404 67.2819C81.9404 65.9575 82.9931 64.8708 84.3175 64.8708C85.6419 64.8538 86.7285 65.9235 86.7285 67.2479Z" fill="#1E0B02"/>
<path d="M110.211 66.9938C110.228 68.3182 109.159 69.4048 107.834 69.4048C106.51 69.4218 105.423 68.3521 105.423 67.0278C105.406 65.7034 106.476 64.6167 107.8 64.6167C109.125 64.6167 110.211 65.6864 110.211 66.9938Z" fill="#1E0B02"/>
<path d="M87.5273 83.2598C87.5273 83.2598 94.2172 86.8084 104.897 83.073" stroke="#CC4A4F" stroke-width="3.39586" stroke-miterlimit="10" stroke-linecap="round" stroke-linejoin="round"/>
<path d="M87.5273 83.2598C87.5273 83.2598 94.2172 86.8084 104.897 83.073" stroke="black" stroke-width="1.12267" stroke-miterlimit="10" stroke-linecap="round" stroke-linejoin="round"/>
<mask id="mask0_359_1484" style="mask-type:luminance" maskUnits="userSpaceOnUse" x="25" y="131" width="146" height="56">
<path d="M163.019 153.537C160.031 145.489 151.1 135.029 134.036 131.633L133.458 132.058C112.234 147.492 83.6921 146.779 62.2982 131.599L63.3679 131.243C44.9623 134.163 35.4539 145.166 32.3467 153.537L25.1475 186.341H56.6271H58.9362H97.683H136.43H138.739H170.219L163.019 153.537Z" fill="white"/>
</mask>
<g mask="url(#mask0_359_1484)">
<path d="M20.9863 135.233H173.324" stroke="#EF758D" stroke-width="1.69793" stroke-miterlimit="10"/>
<path d="M20.9863 143.18H173.324" stroke="#EF758D" stroke-width="1.69793" stroke-miterlimit="10"/>
<path d="M20.9863 151.143H173.324" stroke="#EF758D" stroke-width="1.69793" stroke-miterlimit="10"/>
<path d="M20.9863 159.089H173.324" stroke="#EF758D" stroke-width="1.69793" stroke-miterlimit="10"/>
<path d="M20.9863 167.036H173.324" stroke="#EF758D" stroke-width="1.69793" stroke-miterlimit="10"/>
<path d="M20.9863 174.999H173.324" stroke="#EF758D" stroke-width="1.69793" stroke-miterlimit="10"/>
<path d="M20.9863 182.946H173.324" stroke="#EF758D" stroke-width="1.69793" stroke-miterlimit="10"/>
</g>
</g>
<defs>
<clipPath id="clip0_359_1484">
<rect x="0.539062" width="192" height="192" rx="96" fill="white"/>
</clipPath>
</defs>
</svg>
