<svg width="192" height="193" viewBox="0 0 192 193" fill="none" xmlns="http://www.w3.org/2000/svg">
<g clip-path="url(#clip0_282_234)">
<rect x="0.0942383" y="0.59436" width="191.811" height="191.811" rx="95.9056" fill="#F7D8BA"/>
<path d="M96.3668 240.893C127.48 240.893 152.703 190.58 152.703 128.516C152.703 66.4519 127.48 16.1389 96.3668 16.1389C65.2533 16.1389 40.0308 66.4519 40.0308 128.516C40.0308 190.58 65.2533 240.893 96.3668 240.893Z" fill="black"/>
<path d="M184.886 199.338H6.12793C14.3702 162.337 36.4918 154.947 36.4918 154.947L79.1289 135.005L95.2857 134.858H95.7282L111.901 135.005L154.539 154.947C154.539 154.947 176.644 162.337 184.886 199.338Z" fill="#FFCC33"/>
<path d="M105.28 28.7237C105.28 28.7237 120.159 22.0872 125.435 34.6227C130.515 46.683 110.344 58.1862 110.344 58.1862L105.28 28.7237Z" fill="black"/>
<path d="M77.4573 78.7509C77.6211 84.3223 73.2296 88.976 67.6582 89.1235C62.0869 89.2873 57.4332 84.8958 57.2857 79.3245C57.1218 73.7531 61.5134 69.0994 67.0847 68.952C72.656 68.7881 77.2934 73.1796 77.4573 78.7509Z" fill="#994533"/>
<path d="M61.6284 77.6204C61.6284 77.6204 65.6431 75.6704 69.4611 82.6346" stroke="#1E0B02" stroke-width="1.63863" stroke-miterlimit="10"/>
<path d="M124.404 89.1233C129.979 89.1233 134.498 84.6041 134.498 79.0294C134.498 73.4546 129.979 68.9354 124.404 68.9354C118.829 68.9354 114.31 73.4546 114.31 79.0294C114.31 84.6041 118.829 89.1233 124.404 89.1233Z" fill="#994533"/>
<path d="M130.106 77.4559C130.106 77.4559 126.043 75.6207 122.405 82.6995" stroke="#1E0B02" stroke-width="1.63863" stroke-miterlimit="10"/>
<path d="M108.837 102.298C108.837 102.298 103.151 106.313 97.9562 107.312C92.7618 108.295 87.7312 105.297 87.6657 105.264C87.6001 105.231 81.6028 101.774 81.6028 101.774L79.1284 135.005L79.8003 135.562C88.5997 142.821 101.266 142.903 110.164 135.775L111.459 134.726L108.837 102.298Z" fill="#994533"/>
<path d="M79.1284 98.2672C79.1284 98.2672 84.7817 116.784 97.8088 116.571C108.509 116.407 110.23 98.2672 110.23 98.2672H79.1284Z" fill="#1E0B02"/>
<path d="M123.142 61.4633C123.207 72.8682 121.618 82.7327 120.028 89.7297C118.472 96.5792 114.015 101.38 107.69 105.264L106.543 105.969C99.857 110.081 91.2049 110.213 84.3719 106.329C77.4896 102.413 72.6557 97.2182 71.1318 89.8772C68.3789 76.5387 68.002 61.7419 68.002 61.7419C68.002 61.7419 64.1184 30.8701 93.8595 31.2798C123.601 31.6895 123.142 61.4633 123.142 61.4633Z" fill="#994533"/>
<path d="M86.1912 70.7544C86.1912 73.5565 83.9299 75.8178 81.1278 75.8178C78.3258 75.8178 76.0645 73.5565 76.0645 70.7544C76.0645 67.9523 78.3258 65.691 81.1278 65.691C83.9135 65.691 86.1912 67.9523 86.1912 70.7544Z" fill="white"/>
<path d="M113.163 70.7544C113.163 73.5565 110.902 75.8178 108.1 75.8178C105.298 75.8178 103.037 73.5565 103.037 70.7544C103.037 67.9523 105.298 65.691 108.1 65.691C110.886 65.691 113.163 67.9523 113.163 70.7544Z" fill="white"/>
<path d="M82.7501 72.9174C84.0804 72.9174 85.1589 71.839 85.1589 70.5086C85.1589 69.1783 84.0804 68.0999 82.7501 68.0999C81.4198 68.0999 80.3413 69.1783 80.3413 70.5086C80.3413 71.839 81.4198 72.9174 82.7501 72.9174Z" fill="#1E0B02"/>
<path d="M106.363 72.9174C107.693 72.9174 108.772 71.839 108.772 70.5086C108.772 69.1783 107.693 68.0999 106.363 68.0999C105.033 68.0999 103.954 69.1783 103.954 70.5086C103.954 71.839 105.033 72.9174 106.363 72.9174Z" fill="#1E0B02"/>
<path d="M92.3853 74.0319V80.6683H96.6621" stroke="black" stroke-width="1.63863" stroke-miterlimit="10"/>
<path d="M73.7866 60.3491L89.5011 58.9399C89.5011 58.9399 88.0919 54.8597 81.734 55.5315C75.245 56.187 73.7866 60.3491 73.7866 60.3491Z" fill="black"/>
<path d="M114.31 60.3491L98.5957 58.9399C98.5957 58.9399 100.005 54.8597 106.363 55.5315C112.868 56.187 114.31 60.3491 114.31 60.3491Z" fill="black"/>
<path d="M86.9941 89.4348H102.496C102.496 89.4348 101.775 94.1868 94.5154 94.1868C87.2563 94.1868 86.9941 89.4348 86.9941 89.4348Z" fill="white"/>
<path d="M69.0349 76.3422C69.0349 76.3422 73.4428 42.9633 71.2798 37.4575C71.2798 37.4575 56.3027 49.8456 69.0349 76.3422Z" fill="black"/>
<path d="M122.028 76.08C122.028 76.08 117.079 44.1923 118.456 35.0323C118.439 35.0323 132.908 47.83 122.028 76.08Z" fill="black"/>
<path d="M117.407 32.7549L103.691 30.6739L102.479 28.2979L95.2359 29.3957L87.9932 28.2979L86.7806 30.6739L73.0652 32.7549L71.23 40.096L71.6888 48.5513C71.6888 48.5513 73.8518 38.9653 81.4059 40.8661C83.192 41.3086 85.3222 42.0623 87.8129 42.5703C90.1397 43.0783 92.3683 43.3077 94.4494 43.3405C94.6952 43.3405 94.9573 43.3405 95.2031 43.3405C95.4489 43.3405 95.7111 43.3405 95.9569 43.3405C98.0543 43.3077 100.267 43.0783 102.593 42.5703C105.084 42.0623 107.263 41.4724 109 40.8661C115.997 38.4246 118.586 48.1089 118.586 48.1089L119.176 40.096L117.407 32.7549Z" fill="black"/>
<path d="M79.1293 135.005L69.6089 139.38C69.6089 139.38 69.5105 155.357 95.3845 154.521C121.93 153.669 121.766 139.626 121.766 139.626L111.459 134.727L79.1293 135.005Z" fill="#994533"/>
</g>
<defs>
<clipPath id="clip0_282_234">
<rect x="0.0942383" y="0.59436" width="191.811" height="191.811" rx="95.9056" fill="white"/>
</clipPath>
</defs>
</svg>
