<svg width="192" height="193" viewBox="0 0 192 193" fill="none" xmlns="http://www.w3.org/2000/svg">
<g clip-path="url(#clip0_282_985)">
<rect x="0.0944824" y="0.594482" width="191.811" height="191.811" rx="95.9056" fill="#F7D8BA"/>
<path d="M55.5891 134.734L51.5417 186.439H18.7249C22.1482 178.412 26.1618 168.749 29.8549 159.271C38.1688 137.854 53.9533 134.987 55.471 134.751C55.5553 134.734 55.5891 134.734 55.5891 134.734Z" fill="#D3445B"/>
<path d="M172.809 186.439H139.098L133.719 134.144C133.736 134.144 133.752 134.161 133.769 134.161C134.865 134.296 152.404 137.045 161.46 159.271C165.507 169.221 169.554 178.816 172.809 186.439Z" fill="#D3445B"/>
<path d="M142.505 186.439L92.8408 196.304L48.877 186.439L49.0456 137.585C50.9512 136.404 53.2109 135.477 55.4707 134.751C60.884 133.031 66.1792 132.542 66.1792 132.542L95.657 135.51L125.135 132.542C125.135 132.542 129.132 132.913 133.719 134.144C133.735 134.144 133.752 134.161 133.769 134.161C136.636 134.92 139.739 136.033 142.252 137.585L142.505 186.439Z" fill="#D3445B"/>
<path d="M55.5889 134.735L90.3282 125.611H102.302L133.719 134.161C117.648 149.221 77.7816 161.565 57.3764 135.443L55.5889 134.735Z" fill="#BF6F5C"/>
<path d="M146.333 102.946C146.012 100.197 146.215 97.3981 146.906 94.7505C150.414 81.3101 146.4 69.8765 139.317 61.3097C132.909 53.5692 131.307 42.1355 131.307 42.1355C126.602 26.6377 110.666 15.8787 96.163 15.8787C81.6602 15.8787 65.7576 26.0138 61.0527 41.5116C61.0527 41.5116 58.9278 53.7884 53.0086 61.3097C46.1451 70.0282 41.9123 81.3101 45.4199 94.7505C46.1114 97.3981 46.3306 100.214 45.9933 102.946C45.7572 104.97 45.2007 107.078 44.0371 108.528H148.272C147.125 107.078 146.586 104.97 146.333 102.946Z" fill="#1E0B02"/>
<path d="M78.1018 73.4517C78.2536 79.0842 73.8184 83.7723 68.1859 83.9409C62.5534 84.0927 57.8653 79.6575 57.6967 74.025C57.5449 68.3925 61.9801 63.6875 67.6126 63.5358C73.2451 63.384 77.95 67.8192 78.1018 73.4517Z" fill="#BF6F5C"/>
<path d="M62.1145 72.3049C62.1145 72.3049 66.1787 70.3319 70.0405 77.3809" stroke="#1E0B02" stroke-width="1.68638" stroke-miterlimit="10"/>
<path d="M115.354 73.7382C115.354 79.3707 119.924 83.9408 125.557 83.9408C131.189 83.9408 135.759 79.3707 135.759 73.7382C135.759 68.1057 131.189 63.5356 125.557 63.5356C119.924 63.5356 115.354 68.1057 115.354 73.7382Z" fill="#BF6F5C"/>
<path d="M131.307 72.1362C131.307 72.1362 127.193 70.2811 123.533 77.4314" stroke="#1E0B02" stroke-width="1.68638" stroke-miterlimit="10"/>
<path d="M96.4496 86.3523C114.145 86.3523 128.491 72.007 128.491 54.3112C128.491 36.6153 114.145 22.27 96.4496 22.27C78.7538 22.27 64.4084 36.6153 64.4084 54.3112C64.4084 72.007 78.7538 86.3523 96.4496 86.3523Z" fill="#1E0B02"/>
<path d="M106.585 94.1097C106.585 94.1097 102.167 98.157 98.1365 99.152C94.106 100.147 90.1936 97.0946 90.1431 97.0609C90.0925 97.0272 85.4381 93.5364 85.4381 93.5364L83.5493 127.112L84.0721 127.669C90.9188 135.004 100.75 135.106 107.648 127.905L108.659 126.859L106.585 94.1097Z" fill="#BF6F5C"/>
<path d="M82.2671 89.1011C82.2671 89.1011 87.9333 108.731 98.0347 108.528C106.349 108.376 108.659 90.0792 108.659 90.0792L82.2671 89.1011Z" fill="#1E0B02"/>
<path d="M124.275 54.6652C124.325 65.7109 122.723 75.239 121.121 82.0013C119.536 88.6288 115.033 93.2832 108.659 97.027L107.495 97.7184C100.733 101.698 91.9805 101.833 85.0833 98.0725C78.1185 94.2782 73.2449 89.2528 71.7103 82.1531C68.9278 69.2523 68.5567 54.935 68.5567 54.935C68.5567 54.935 66.2296 25.0692 96.2808 25.4571C126.332 25.8618 124.275 54.6652 124.275 54.6652Z" fill="#BF6F5C"/>
<path d="M94.0044 71.0063V75.3909H96.9556" stroke="#1E0B02" stroke-width="1.68638" stroke-miterlimit="10"/>
<path d="M73.5986 54.4124L89.4843 52.979C89.4843 52.979 88.0678 48.8642 81.6427 49.5219C75.0658 50.2133 73.5986 54.4124 73.5986 54.4124Z" fill="black"/>
<path d="M117.276 54.4124L101.39 52.979C101.39 52.979 102.807 48.8642 109.232 49.5219C115.792 50.2133 117.276 54.4124 117.276 54.4124Z" fill="black"/>
<path d="M86.8032 79.4214H104.156C104.156 79.4214 103.498 83.9409 95.1677 83.9409C88.3378 83.9409 86.8032 79.4214 86.8032 79.4214Z" fill="white"/>
<path d="M87.6125 65.1209C87.6125 65.1209 83.4978 61.765 79.8889 65.1209" stroke="#1E0B02" stroke-width="1.61302" stroke-miterlimit="10" stroke-linecap="round" stroke-linejoin="round"/>
<path d="M110.834 65.121C110.834 65.121 107.613 61.6808 103.313 65.121" stroke="#1E0B02" stroke-width="1.61302" stroke-miterlimit="10" stroke-linecap="round" stroke-linejoin="round"/>
<path opacity="0.23" d="M79.9063 54.1427L91.5592 69.9609C91.5592 69.9609 88.0515 76.6727 82.4528 75.9306L70.6987 60.5003C70.6987 60.5003 73.8691 53.7211 79.9063 54.1427Z" fill="white"/>
<path opacity="0.23" d="M108.557 54.1427L120.21 69.9609C120.21 69.9609 116.702 76.6727 111.104 75.9306L99.3497 60.5003C99.3328 60.5003 102.52 53.7211 108.557 54.1427Z" fill="white"/>
<path d="M92.4868 65.1208C92.4868 71.411 87.3939 76.5039 81.1037 76.5039C74.8136 76.5039 69.7207 71.411 69.7207 65.1208C69.7207 58.8307 74.8136 53.7378 81.1037 53.7378C87.3771 53.7378 92.4868 58.8307 92.4868 65.1208Z" stroke="white" stroke-width="0.830878" stroke-miterlimit="10"/>
<path d="M121.155 65.1208C121.155 71.411 116.062 76.5039 109.772 76.5039C103.482 76.5039 98.3887 71.411 98.3887 65.1208C98.3887 58.8307 103.482 53.7378 109.772 53.7378C116.062 53.7378 121.155 58.8307 121.155 65.1208Z" stroke="white" stroke-width="0.830878" stroke-miterlimit="10"/>
<path d="M92.4868 65.121C92.4868 65.121 95.7415 63.9237 98.3891 65.121" stroke="white" stroke-width="0.830878" stroke-miterlimit="10"/>
<path d="M65.6731 47.8691C65.6731 47.8691 92.4528 42.7763 97.9841 22.7758C97.9841 22.7758 69.4843 12.6744 65.6731 47.8691Z" fill="#1E0B02"/>
<path d="M124.275 47.8691C124.275 47.8691 97.4949 42.7763 91.9636 22.7758C91.9636 22.7758 120.463 12.6744 124.275 47.8691Z" fill="#1E0B02"/>
</g>
<defs>
<clipPath id="clip0_282_985">
<rect x="0.0944824" y="0.594482" width="191.811" height="191.811" rx="95.9056" fill="white"/>
</clipPath>
</defs>
</svg>
