<svg width="193" height="192" viewBox="0 0 193 192" fill="none" xmlns="http://www.w3.org/2000/svg">
<g clip-path="url(#clip0_359_1218)">
<path d="M96.539 192C149.558 192 192.539 149.019 192.539 96C192.539 42.9807 149.558 0 96.539 0C43.5197 0 0.539063 42.9807 0.539063 96C0.539063 149.019 43.5197 192 96.539 192Z" fill="#F7D8BA"/>
<path d="M134.929 40.1739C130.633 32.7369 124.979 28.1015 119.698 25.232C112.872 21.5135 104.943 20.4098 97.2683 21.7003C89.6106 20.4098 81.6642 21.5135 74.8554 25.232C69.5748 28.1015 63.9206 32.7369 59.6248 40.1739C48.707 59.0891 48.9448 118.517 48.9448 118.517L94.8572 121.37V121.675L97.2683 121.523L99.6794 121.675V121.37L145.592 118.517C145.609 118.534 145.847 59.106 134.929 40.1739Z" fill="#2D0901"/>
<path d="M164.39 161.565C161.226 152.149 151.544 139.781 132.802 136.501L97.86 128.841L62.9179 136.501C44.1761 139.781 34.494 152.149 31.33 161.565L24.0166 198.456H56.0713H58.4227H97.8773H137.332H139.683H171.738L164.39 161.565Z" fill="#28466D"/>
<path d="M62.4946 135.768L99.6967 128.229L134.42 135.666L133.656 136.227C112.448 151.474 83.8888 150.778 62.4946 135.768Z" fill="#DB9969"/>
<path d="M79.3215 80.7208C79.5422 86.2561 75.2125 90.9254 69.6771 91.1462C64.1418 91.3669 59.4725 87.0372 59.2517 81.5019C59.031 75.9666 63.3607 71.2972 68.8961 71.0765C74.4483 70.8557 79.1177 75.1685 79.3215 80.7208Z" fill="#DB9969"/>
<path d="M63.5645 79.7531C63.5645 79.7531 67.5376 77.7665 71.409 84.6602" stroke="#B9635E" stroke-width="1.12268" stroke-miterlimit="10" stroke-linecap="round" stroke-linejoin="round"/>
<path d="M115.997 80.6191C116.048 86.1714 120.598 90.62 126.151 90.5521C131.703 90.5011 136.152 85.9506 136.084 80.3983C136.033 74.8461 131.482 70.3974 125.93 70.4654C120.378 70.5333 115.929 75.0838 115.997 80.6191Z" fill="#DB9969"/>
<path d="M131.685 78.8875C131.685 78.8875 127.627 77.1047 124.079 84.1851" stroke="#B9635E" stroke-width="1.12268" stroke-miterlimit="10" stroke-linecap="round" stroke-linejoin="round"/>
<path d="M97.4177 88.6198C116.499 88.4232 131.819 73.8292 131.635 56.0231C131.452 38.217 115.835 23.9417 96.7534 24.1382C77.6721 24.3348 62.3523 38.9288 62.5357 56.7349C62.7191 74.541 78.3364 88.8163 97.4177 88.6198Z" fill="#2D0901"/>
<path d="M107.558 100.757C107.558 100.757 103.262 104.798 99.3059 105.816C95.3497 106.835 91.4615 103.881 91.4105 103.847C91.3596 103.813 86.7412 100.417 86.7412 100.417L85.23 133.493L85.7563 134.036C92.5651 141.202 102.243 141.202 108.95 134.036L109.935 132.984L107.558 100.757Z" fill="#DB9969"/>
<path d="M83.5654 96.0703C83.5654 96.0703 89.3384 115.325 99.2714 115.036C107.439 114.799 109.527 96.7665 109.527 96.7665L83.5654 96.0703Z" fill="#1E0B02"/>
<path d="M124.572 61.755C124.741 72.6219 123.264 82.0115 121.753 88.7014C120.276 95.2385 115.878 99.857 109.63 103.626L108.492 104.306C101.887 108.279 93.2785 108.516 86.4358 104.883C79.5421 101.215 74.6859 96.3252 73.1068 89.3636C70.2373 76.697 69.7279 62.621 69.7279 62.621C69.7279 62.621 67.1301 33.2635 96.7083 33.3314C126.304 33.3824 124.572 61.755 124.572 61.755Z" fill="#DB9969"/>
<path d="M89.7125 71.586C89.7125 74.4895 87.3693 76.8327 84.4658 76.8327C81.5623 76.8327 79.2192 74.4895 79.2192 71.586C79.2192 68.6825 81.5623 66.3394 84.4658 66.3394C87.3693 66.3394 89.7125 68.6995 89.7125 71.586Z" fill="white"/>
<path d="M114.044 71.2803C114.044 74.1838 111.7 76.527 108.797 76.527C105.894 76.527 103.55 74.1838 103.55 71.2803C103.55 68.3769 105.894 66.0337 108.797 66.0337C111.7 66.0337 114.044 68.3769 114.044 71.2803Z" fill="white"/>
<path d="M94.9424 77.0874L94.9764 81.3323L97.8799 81.2983" stroke="#B9635E" stroke-width="1.12268" stroke-miterlimit="10" stroke-linecap="round" stroke-linejoin="round"/>
<path d="M74.6855 62.0267L90.3067 60.4476C90.3067 60.4476 88.8634 56.4065 82.547 57.1366C76.0949 57.8837 74.6855 62.0267 74.6855 62.0267Z" fill="black"/>
<path d="M117.678 61.5853L102.023 60.3288C102.023 60.3288 103.381 56.2707 109.715 56.848C116.184 57.4592 117.678 61.5853 117.678 61.5853Z" fill="black"/>
<path d="M86.9286 71.4164C86.9455 72.7408 85.8758 73.8275 84.5514 73.8275C83.227 73.8445 82.1403 72.7748 82.1403 71.4504C82.1234 70.126 83.1931 69.0393 84.5175 69.0393C85.8419 69.0393 86.9116 70.092 86.9286 71.4164Z" fill="black"/>
<path d="M110.41 71.1613C110.427 72.4857 109.358 73.5724 108.033 73.5724C106.709 73.5894 105.622 72.5197 105.622 71.1953C105.622 69.8709 106.675 68.7842 107.999 68.7842C109.324 68.7842 110.41 69.8539 110.41 71.1613Z" fill="black"/>
<path d="M87.8789 87.9373C87.8789 87.9373 94.5688 91.486 105.249 87.7505" stroke="#660000" stroke-width="3.39589" stroke-miterlimit="10" stroke-linecap="round" stroke-linejoin="round"/>
<path d="M87.7261 87.428C87.7261 87.428 94.4161 90.9767 105.096 87.2412" stroke="black" stroke-width="1.12268" stroke-miterlimit="10" stroke-linecap="round" stroke-linejoin="round"/>
<path d="M67.5037 56.7967C67.5037 56.7967 75.4501 53.6386 82.1569 53.4009L83.4134 42.4831L86.1981 53.6386H97.8969L99.9005 45.7601L102.04 53.6386L116.014 54.3687L117.695 47.458L118.833 54.8611L127.9 55.4723C127.9 55.4723 122.721 31.7011 101.242 29.5107C79.7628 27.3204 65.9076 43.5867 67.5037 56.7967Z" fill="#2D0901"/>
</g>
<defs>
<clipPath id="clip0_359_1218">
<rect x="0.539062" width="192" height="192" rx="96" fill="white"/>
</clipPath>
</defs>
</svg>
