<svg width="192" height="192" viewBox="0 0 192 192" fill="none" xmlns="http://www.w3.org/2000/svg">
<g clip-path="url(#clip0_359_1186)">
<path d="M95.9999 192C149.019 192 192 149.019 192 96C192 42.9807 149.019 0 95.9999 0C42.9806 0 0 42.9807 0 96C0 149.019 42.9806 192 95.9999 192Z" fill="#F7D8BA"/>
<path d="M190.135 197.089H4.90771C13.4483 158.749 36.3703 151.092 36.3703 151.092L80.5505 130.428L97.292 130.275H97.7505L114.509 130.428L158.689 151.092C158.689 151.092 181.594 158.749 190.135 197.089Z" fill="#00CC99"/>
<path d="M107.649 20.3C107.649 20.3 123.067 13.4234 128.534 26.4125C133.798 38.9093 112.896 50.8288 112.896 50.8288L107.649 20.3Z" fill="black"/>
<path d="M78.8187 72.1377C78.9885 77.9107 74.4381 82.7328 68.6651 82.8856C62.8922 83.0554 58.07 78.5049 57.9172 72.732C57.7474 66.959 62.2978 62.1369 68.0708 61.9841C73.8437 61.8143 78.6489 66.3647 78.8187 72.1377Z" fill="#DB9969"/>
<path d="M62.4175 70.9662C62.4175 70.9662 66.5774 68.9456 70.5335 76.1618" stroke="#A8523F" stroke-width="1.27039" stroke-miterlimit="10" stroke-linecap="round" stroke-linejoin="round"/>
<path d="M127.465 82.8855C133.241 82.8855 137.924 78.2028 137.924 72.4263C137.924 66.6498 133.241 61.967 127.465 61.967C121.688 61.967 117.005 66.6498 117.005 72.4263C117.005 78.2028 121.688 82.8855 127.465 82.8855Z" fill="#DB9969"/>
<path d="M133.357 70.7959C133.357 70.7959 129.146 68.8943 125.376 76.2293" stroke="#A8523F" stroke-width="1.27039" stroke-miterlimit="10" stroke-linecap="round" stroke-linejoin="round"/>
<path d="M111.334 96.537C111.334 96.537 105.442 100.697 100.06 101.733C94.6775 102.751 89.4648 99.6442 89.3969 99.6102C89.329 99.5763 83.1147 95.9937 83.1147 95.9937L80.5508 130.428L81.2469 131.005C90.3648 138.527 103.49 138.612 112.71 131.226L114.051 130.139L111.334 96.537Z" fill="#DB9969"/>
<path d="M80.5508 92.3601C80.5508 92.3601 86.4086 111.547 99.9071 111.326C110.995 111.156 112.777 92.3601 112.777 92.3601H80.5508Z" fill="#1E0B02"/>
<path d="M126.157 54.2244C126.225 66.042 124.578 76.2635 122.931 83.5137C121.318 90.611 116.7 95.5859 110.146 99.61L108.957 100.34C102.029 104.602 93.0644 104.738 85.9841 100.714C78.8528 96.6556 73.8438 91.2732 72.2648 83.6665C69.4123 69.8453 69.0217 54.513 69.0217 54.513C69.0217 54.513 64.9976 22.524 95.815 22.9485C126.632 23.373 126.157 54.2244 126.157 54.2244Z" fill="#DB9969"/>
<path d="M87.8516 63.8516C87.8516 66.755 85.5084 69.0982 82.6049 69.0982C79.7015 69.0982 77.3584 66.755 77.3584 63.8516C77.3584 60.9481 79.7015 58.605 82.6049 58.605C85.5084 58.605 87.8516 60.9481 87.8516 63.8516Z" fill="white"/>
<path d="M115.817 63.8516C115.817 66.755 113.474 69.0982 110.57 69.0982C107.667 69.0982 105.324 66.755 105.324 63.8516C105.324 60.9481 107.667 58.605 110.57 58.605C113.457 58.605 115.817 60.9481 115.817 63.8516Z" fill="white"/>
<path d="M84.303 66.093C85.6815 66.093 86.799 64.9755 86.799 63.597C86.799 62.2186 85.6815 61.1011 84.303 61.1011C82.9246 61.1011 81.8071 62.2186 81.8071 63.597C81.8071 64.9755 82.9246 66.093 84.303 66.093Z" fill="black"/>
<path d="M108.771 66.093C110.149 66.093 111.267 64.9755 111.267 63.597C111.267 62.2186 110.149 61.1011 108.771 61.1011C107.392 61.1011 106.275 62.2186 106.275 63.597C106.275 64.9755 107.392 66.093 108.771 66.093Z" fill="black"/>
<path d="M94.27 67.2476V74.1242H98.7186" stroke="#A8523F" stroke-width="1.27039" stroke-miterlimit="10" stroke-linecap="round" stroke-linejoin="round"/>
<path d="M75.0156 53.0701L91.2988 51.6098C91.2988 51.6098 89.8385 47.382 83.2505 48.0781C76.5267 48.7573 75.0156 53.0701 75.0156 53.0701Z" fill="black"/>
<path d="M117.006 53.0701L100.723 51.6098C100.723 51.6098 102.183 47.382 108.771 48.0781C115.495 48.7573 117.006 53.0701 117.006 53.0701Z" fill="black"/>
<path d="M88.7007 83.208H104.763C104.763 83.208 104.016 88.132 96.4942 88.132C88.9724 88.132 88.7007 83.208 88.7007 83.208Z" fill="white"/>
<path d="M70.0916 69.6417C70.0916 69.6417 74.6591 35.0549 72.4178 29.3499C72.4178 29.3499 56.8987 42.1862 70.0916 69.6417Z" fill="black"/>
<path d="M125.002 69.37C125.002 69.37 119.875 36.3283 121.301 26.8369C121.284 26.8369 136.277 40.0977 125.002 69.37Z" fill="black"/>
<path d="M120.214 24.4765L106.003 22.3202L104.746 19.8582L97.2414 20.9958L89.7365 19.8582L88.48 22.3202L74.2684 24.4765L72.3667 32.0832L72.8421 40.8446C72.8421 40.8446 75.0834 30.9117 82.9109 32.8813C84.7616 33.3397 86.9689 34.1208 89.5497 34.6471C91.9608 35.1735 94.27 35.4112 96.4263 35.4451C96.681 35.4451 96.9527 35.4451 97.2074 35.4451C97.4621 35.4451 97.7338 35.4451 97.9885 35.4451C100.162 35.4112 102.454 35.1735 104.865 34.6471C107.446 34.1208 109.704 33.5095 111.504 32.8813C118.754 30.3514 121.437 40.3861 121.437 40.3861L122.048 32.0832L120.214 24.4765Z" fill="black"/>
<path d="M121.047 19.8754C119.128 18.7038 93.608 10.7405 84.3203 8.29551C75.0326 5.85049 64.5056 2.76026 62.4341 14.0854C60.3626 25.4106 57.6629 23.7976 62.4341 30.3686C67.2053 36.9396 68.9201 40.8448 68.9201 40.8448L75.0327 31.1666C75.0327 31.1666 88.6671 28.416 90.4159 29.3498C92.1478 30.2837 106.733 29.6385 109.229 29.3498C111.725 29.0612 120.486 21.5733 121.318 26.8199C122.133 32.0665 127.448 37.2792 127.448 37.2792" fill="black"/>
<path d="M80.5515 130.428L70.6865 134.961C70.6865 134.961 70.5846 151.516 97.3949 150.65C124.901 149.767 124.732 135.216 124.732 135.216L114.052 130.139L80.5515 130.428Z" fill="#DB9969"/>
</g>
<defs>
<clipPath id="clip0_359_1186">
<rect width="192" height="192" rx="96" fill="white"/>
</clipPath>
</defs>
</svg>
