<svg width="193" height="192" viewBox="0 0 193 192" fill="none" xmlns="http://www.w3.org/2000/svg">
<g clip-path="url(#clip0_359_1346)">
<path d="M96.5001 192C149.519 192 192.5 149.019 192.5 96C192.5 42.9807 149.519 0 96.5001 0C43.4807 0 0.5 42.9807 0.5 96C0.5 149.019 43.4807 192 96.5001 192Z" fill="#F7D8BA"/>
<path d="M67.8194 47.3965C67.8194 47.3965 63.4896 72.1353 33.7249 90.0994C1.99065 109.252 20.0736 170.089 75.6468 171.43C136.008 172.89 166.69 97.4684 131.797 35.8845L67.8194 47.3965Z" fill="#FFCC00"/>
<path d="M168.065 153.297C164.958 145.011 155.449 134.127 137.044 131.241L102.729 124.5L68.4134 131.241C50.0078 134.127 40.4994 145.011 37.3922 153.297L30.21 185.761H61.6895L63.9818 188.393L102.185 195.915L141.458 185.778H143.767H175.247L168.065 153.297Z" fill="white"/>
<path d="M67.3442 131.597L104.546 124.058L139.268 131.495L138.504 132.055C117.297 147.303 88.7381 146.607 67.3442 131.597Z" fill="#E0A78F"/>
<path d="M84.1709 76.55C84.3916 82.0853 80.0618 86.7546 74.5265 86.9753C68.9913 87.196 64.3221 82.8663 64.1013 77.3311C63.8806 71.7958 68.2103 67.1265 73.7456 66.9058C79.2808 66.6851 83.9501 70.9978 84.1709 76.55Z" fill="#E0A78F"/>
<path d="M68.4146 75.5822C68.4146 75.5822 72.3877 73.5956 76.259 80.4892" stroke="#B9635E" stroke-width="1.12267" stroke-miterlimit="10" stroke-linecap="round" stroke-linejoin="round"/>
<path d="M120.846 76.4481C120.897 82.0003 125.447 86.4489 131 86.3809C136.552 86.33 141 81.7796 140.933 76.2273C140.882 70.6751 136.331 66.2266 130.779 66.2945C125.227 66.3624 120.778 70.8958 120.846 76.4481Z" fill="#E0A78F"/>
<path d="M136.518 74.7164C136.518 74.7164 132.46 72.9335 128.912 80.0139" stroke="#B9635E" stroke-width="1.12267" stroke-miterlimit="10" stroke-linecap="round" stroke-linejoin="round"/>
<path d="M102.232 84.4739C121.313 84.2773 136.633 69.6834 136.449 51.8775C136.266 34.0716 120.649 19.7964 101.568 19.993C82.4868 20.1895 67.1672 34.7834 67.3507 52.5893C67.5341 70.3952 83.151 84.6704 102.232 84.4739Z" fill="#FFCC00"/>
<path d="M112.408 96.5857C112.408 96.5857 108.112 100.627 104.156 101.645C100.2 102.664 96.3115 99.7098 96.2606 99.6759C96.2096 99.6419 91.5913 96.2461 91.5913 96.2461L90.0801 129.322L90.6064 129.865C97.4151 137.03 107.093 137.03 113.8 129.865L114.785 128.812L112.408 96.5857Z" fill="#E0A78F"/>
<path d="M88.416 91.8994C88.416 91.8994 94.189 111.154 104.122 110.865C112.289 110.628 114.377 92.5956 114.377 92.5956L88.416 91.8994Z" fill="#1E0B02"/>
<path d="M129.421 57.5843C129.59 68.4511 128.113 77.8406 126.602 84.5305C125.125 91.0675 120.727 95.6859 114.479 99.4553L113.341 100.134C106.736 104.108 98.1278 104.345 91.2852 100.712C84.3916 97.0442 79.5355 92.1542 77.9564 85.1927C75.0869 72.5261 74.5775 58.4503 74.5775 58.4503C74.5775 58.4503 71.9797 29.0931 101.558 29.161C131.153 29.2119 129.421 57.5843 129.421 57.5843Z" fill="#E0A78F"/>
<path d="M94.3423 67.4146C94.3423 70.318 91.9991 72.6612 89.0957 72.6612C86.1922 72.6612 83.8491 70.318 83.8491 67.4146C83.8491 64.5111 86.1922 62.168 89.0957 62.168C91.9991 62.168 94.3423 64.5281 94.3423 67.4146Z" fill="white"/>
<path d="M118.656 67.1094C118.656 70.0128 116.313 72.356 113.409 72.356C110.506 72.356 108.163 70.0128 108.163 67.1094C108.163 64.2059 110.506 61.8628 113.409 61.8628C116.313 61.8628 118.656 64.2059 118.656 67.1094Z" fill="white"/>
<path d="M99.7744 72.9163L99.8253 77.1611L102.729 77.1271" stroke="#B9635E" stroke-width="1.12267" stroke-miterlimit="10" stroke-linecap="round" stroke-linejoin="round"/>
<path d="M79.5356 57.8557L95.1566 56.2766C95.1566 56.2766 93.7134 52.2356 87.3971 52.9657C80.9449 53.7128 79.5356 57.8557 79.5356 57.8557Z" fill="#B59304"/>
<path d="M122.527 57.4143L106.873 56.1578C106.873 56.1578 108.231 52.0998 114.564 52.6771C121.033 53.2883 122.527 57.4143 122.527 57.4143Z" fill="#B59304"/>
<path d="M91.7784 67.2452C91.7954 68.5696 90.7256 69.6563 89.4013 69.6563C88.0769 69.6563 86.9902 68.6036 86.9902 67.2792C86.9902 65.9548 88.043 64.8681 89.3674 64.8681C90.6918 64.8511 91.7614 65.9209 91.7784 67.2452Z" fill="#1E0B02"/>
<path d="M115.26 66.9906C115.277 68.315 114.207 69.4017 112.882 69.4017C111.558 69.4187 110.471 68.349 110.471 67.0246C110.454 65.7002 111.524 64.6135 112.848 64.6135C114.173 64.6135 115.243 65.6832 115.26 66.9906Z" fill="#1E0B02"/>
<path d="M92.5762 83.2568C92.5762 83.2568 99.2661 86.8055 109.946 83.0701" stroke="#CC4A4F" stroke-width="3.39586" stroke-miterlimit="10" stroke-linecap="round" stroke-linejoin="round"/>
<path d="M92.5586 83.2568C92.5586 83.2568 99.2484 86.8055 109.928 83.0701" stroke="black" stroke-width="1.12267" stroke-miterlimit="10" stroke-linecap="round" stroke-linejoin="round"/>
<path d="M129.353 50.9113C129.353 50.9113 85.835 52.9998 87.414 27.4459C87.414 27.429 125.244 16.2905 129.353 50.9113Z" fill="#FFCC00"/>
<path d="M73.8646 51.4886C73.8646 51.4886 89.095 44.9346 88.9252 29.2627C88.9422 29.2627 73.2704 31.2323 73.8646 51.4886Z" fill="#FFCC00"/>
<mask id="mask0_359_1346" style="mask-type:luminance" maskUnits="userSpaceOnUse" x="30" y="131" width="146" height="56">
<path d="M168.066 153.534C165.078 145.486 156.147 135.027 139.083 131.631L138.505 132.055C117.281 147.49 88.7389 146.777 67.345 131.597L68.4147 131.24C50.0092 134.161 40.5007 145.164 37.3935 153.534L30.1943 186.338H61.674H63.9832H102.73H141.477H143.769H175.248L168.066 153.534Z" fill="white"/>
</mask>
<g mask="url(#mask0_359_1346)">
<path d="M26.0337 135.231H178.355" stroke="#EF758D" stroke-width="1.69793" stroke-miterlimit="10"/>
<path d="M26.0337 143.177H178.355" stroke="#EF758D" stroke-width="1.69793" stroke-miterlimit="10"/>
<path d="M26.0337 151.141H178.355" stroke="#EF758D" stroke-width="1.69793" stroke-miterlimit="10"/>
<path d="M26.0337 159.087H178.355" stroke="#EF758D" stroke-width="1.69793" stroke-miterlimit="10"/>
<path d="M26.0337 167.033H178.355" stroke="#EF758D" stroke-width="1.69793" stroke-miterlimit="10"/>
<path d="M26.0337 174.996H178.355" stroke="#EF758D" stroke-width="1.69793" stroke-miterlimit="10"/>
<path d="M26.0337 182.943H178.355" stroke="#EF758D" stroke-width="1.69793" stroke-miterlimit="10"/>
</g>
</g>
<defs>
<clipPath id="clip0_359_1346">
<rect x="0.5" width="192" height="192" rx="96" fill="white"/>
</clipPath>
</defs>
</svg>
